Coordinates
version=1
nRows=8
nColumns=40
inDegrees=yes

Units are S.I. units (second, meters, Newtons, ...)
Angles are in degrees.

endheader
time	pelvis_tilt	pelvis_list	pelvis_rotation	pelvis_tx	pelvis_ty	pelvis_tz	hip_flexion_r	hip_adduction_r	hip_rotation_r	knee_angle_r	knee_angle_r_beta	ankle_angle_r	subtalar_angle_r	mtp_angle_r	hip_flexion_l	hip_adduction_l	hip_rotation_l	knee_angle_l	knee_angle_l_beta	ankle_angle_l	subtalar_angle_l	mtp_angle_l	lumbar_extension	lumbar_bending	lumbar_rotation	arm_flex_r	arm_add_r	arm_rot_r	elbow_flex_r	pro_sup_r	wrist_flex_r	wrist_dev_r	arm_flex_l	arm_add_l	arm_rot_l	elbow_flex_l	pro_sup_l	wrist_flex_l	wrist_dev_l
     51.97750000	     -4.64521136	     -5.08286047	      5.37479245	      1.06956326	      0.92965277	      0.44435266	      5.27194523	     -0.06942292	    -16.40528273	     25.67150076	     25.67150076	     14.03404910	     -2.96124220	     -7.81117457	     23.18365859	     -5.98756163	     -2.68060679	     23.76481228	     23.76481228	      9.29347235	     -9.13760547	      2.65109330	     -7.98241531	      4.35509024	      3.38522925	     21.90123253	    -14.38362485	      5.12441022	     51.19308703	     45.62969639	      0.00000000	      0.00000000	     -0.42356113	     -8.37774326	     -6.60277574	     28.45209610	     45.54167146	      0.00000000	      0.00000000
     51.99057143	     -4.60374126	     -4.98250074	      5.10397470	      1.06910992	      0.93031668	      0.44195160	      6.64296371	     -0.88200655	    -15.98414743	     28.90175122	     28.90175122	     13.36653819	     -3.83087611	     -8.58388889	     22.54113468	     -5.90762817	     -3.28816567	     23.47175569	     23.47175569	      9.64568474	     -8.63796540	      2.40794975	     -8.06133919	      4.16398951	      3.29001080	     20.52752401	    -14.33239978	      5.42125438	     50.31063917	     45.63908667	      0.00000000	      0.00000000	      0.26379086	     -8.54836183	     -6.60429659	     28.98628805	     45.55811271	      0.00000000	      0.00000000
     52.00364286	     -4.62863640	     -4.91610607	      4.80041452	      1.06845586	      0.93063942	      0.43977735	      8.27761149	     -1.61361226	    -15.32478520	     32.35452852	     32.35452852	     12.42267231	     -5.08884302	     -9.39866176	     22.06661033	     -5.90998990	     -4.02563042	     23.33450335	     23.33450335	      9.99619284	     -7.96926868	      2.01738071	     -8.06559572	      4.03904250	      3.29703611	     19.10557292	    -14.33491324	      5.75897097	     49.13354711	     45.65671252	      0.00000000	      0.00000000	      0.98238915	     -8.74890659	     -6.57792205	     29.64637166	     45.57114573	      0.00000000	      0.00000000
     52.01671429	     -4.59831624	     -4.98215004	      4.49296804	      1.06769769	      0.93078664	      0.43794275	      9.94709820	     -2.03930282	    -14.36637990	     35.77957034	     35.77957034	     10.99671650	     -7.03800650	    -10.57788634	     21.66256809	     -6.13360400	     -4.87678665	     23.40539037	     23.40539037	     10.41531205	     -7.01257518	      1.26537087	     -8.11770642	      4.03275878	      3.27368013	     17.94807909	    -14.30669921	      6.26342433	     47.20642445	     45.69218906	      0.00000000	      0.00000000	      1.59836463	     -9.01924754	     -6.35062212	     30.72215954	     45.56187617	      0.00000000	      0.00000000
     52.02978571	     -4.48491661	     -4.80707696	      4.20896520	      1.06684381	      0.93091407	      0.43599434	     11.64901224	     -2.85790557	    -13.71380867	     39.45966921	     39.45966921	      9.79355937	     -8.13748308	    -11.02388720	     21.07529006	     -5.99299570	     -5.46642532	     23.33043010	     23.33043010	     10.77053768	     -6.64649985	      0.95821676	     -8.32950342	      3.77480283	      2.98414704	     16.67959720	    -14.16079557	      6.51912233	     46.23204906	     45.70690365	      0.00000000	      0.00000000	      2.31671469	     -9.34392180	     -6.30783397	     31.29918428	     45.57199543	      0.00000000	      0.00000000
     52.04285714	     -4.40890269	     -4.70880998	      3.92624046	      1.06585574	      0.93082970	      0.43425943	     13.45633626	     -3.47112099	    -12.88483513	     43.06376777	     43.06376777	      8.44745197	     -9.48051534	    -11.14517951	     20.61815813	     -5.93906387	     -5.97993015	     23.37362940	     23.37362940	     11.13980758	     -6.30111668	      0.57184916	     -8.47216588	      3.61326684	      2.82936232	     15.32720414	    -14.12234748	      6.76661495	     45.02583779	     45.72999173	      0.00000000	      0.00000000	      3.11078478	     -9.65568937	     -6.24730613	     32.02128676	     45.58104394	      0.00000000	      0.00000000
     52.05592857	     -4.26505555	     -4.63460088	      3.67279604	      1.06482612	      0.93076606	      0.43267583	     15.18936016	     -3.98070898	    -12.08227338	     46.49819886	     46.49819886	      7.06844930	    -10.74464264	    -10.95760944	     20.12733532	     -5.89862149	     -6.39052614	     23.46210012	     23.46210012	     11.51255703	     -6.07715111	      0.19763850	     -8.70372823	      3.45834797	      2.60125764	     14.00280882	    -14.08795114	      6.96930493	     43.81867684	     45.75556919	      0.00000000	      0.00000000	      3.95242693	     -9.98981941	     -6.17628553	     32.75228863	     45.58920412	      0.00000000	      0.00000000
     52.06900000	     -4.13599964	     -4.66904018	      3.41868339	      1.06372767	      0.93070114	      0.43132091	     16.98833185	     -4.23022007	    -11.17218334	     49.83620634	     49.83620634	      6.35416740	    -11.71543117	     -8.44733569	     19.67263039	     -6.00129680	     -6.83017600	     23.52450893	     23.52450893	     11.56379844	     -5.85128510	     -0.89156889	     -8.84515680	      3.45728961	      2.00985829	     13.70201382	    -13.53896953	      7.08267554	     40.00598700	     45.87467296	      0.00000000	      0.00000000	      4.04001699	    -10.74416980	     -4.80956163	     34.83235199	     45.46402458	      0.00000000	      0.00000000
